<svg xmlns="http://www.w3.org/2000/svg" xmlns:xlink="http://www.w3.org/1999/xlink" width="500" zoomAndPan="magnify" viewBox="0 0 375 374.999991" height="500" preserveAspectRatio="xMidYMid meet" version="1.0"><defs><g/><clipPath id="fc42ddea02"><path d="M 68.367188 164.925781 L 155.367188 164.925781 L 155.367188 213.675781 L 68.367188 213.675781 Z M 68.367188 164.925781 " clip-rule="nonzero"/></clipPath></defs><g fill="#000000" fill-opacity="1"><g transform="translate(153.201014, 205.566786)"><g><path d="M 5.65625 0.328125 C 3.09375 0.328125 1.222656 -0.472656 0.046875 -2.078125 C -1.128906 -3.691406 -1.390625 -5.90625 -0.734375 -8.71875 L 2.984375 -24.90625 C 3.804688 -28.394531 5.117188 -31.023438 6.921875 -32.796875 C 8.722656 -34.578125 11.109375 -35.46875 14.078125 -35.46875 C 16.671875 -35.46875 18.59375 -34.757812 19.84375 -33.34375 C 21.101562 -31.925781 21.414062 -29.878906 20.78125 -27.203125 L 19.390625 -21.15625 L 12.40625 -21.15625 L 13.625 -26.34375 C 13.84375 -27.351562 13.875 -28.046875 13.71875 -28.421875 C 13.570312 -28.804688 13.203125 -29 12.609375 -29 C 11.984375 -29 11.5 -28.78125 11.15625 -28.34375 C 10.8125 -27.90625 10.546875 -27.265625 10.359375 -26.421875 L 6.265625 -8.796875 C 6.078125 -7.867188 6.0625 -7.191406 6.21875 -6.765625 C 6.382812 -6.347656 6.738281 -6.140625 7.28125 -6.140625 C 8.375 -6.140625 9.125 -7.023438 9.53125 -8.796875 L 11.015625 -15.140625 L 18.09375 -15.140625 L 16.578125 -8.515625 C 15.210938 -2.617188 11.570312 0.328125 5.65625 0.328125 Z M 5.65625 0.328125 "/></g></g></g><g fill="#000000" fill-opacity="1"><g transform="translate(173.611499, 205.566786)"><g><path d="M -3.390625 0 L 8.109375 -35.140625 L 20.015625 -35.140625 L 15.265625 0 L 8.59375 0 L 9.421875 -5.6875 L 5.15625 -5.6875 L 3.4375 0 Z M 7 -11.296875 L 10.1875 -11.296875 L 12.734375 -29.171875 L 12.40625 -29.171875 Z M 7 -11.296875 "/></g></g></g><g fill="#000000" fill-opacity="1"><g transform="translate(194.471908, 205.566786)"><g><path d="M 5.65625 -35.140625 L 16.453125 -35.140625 C 18.171875 -35.140625 19.410156 -34.75 20.171875 -33.96875 C 20.929688 -33.195312 21.3125 -32.109375 21.3125 -30.703125 C 21.3125 -29.296875 21.066406 -27.503906 20.578125 -25.328125 C 20.117188 -23.328125 19.5 -21.769531 18.71875 -20.65625 C 17.945312 -19.539062 16.863281 -18.765625 15.46875 -18.328125 C 16.476562 -18.109375 17.125 -17.578125 17.40625 -16.734375 C 17.695312 -15.890625 17.675781 -14.742188 17.34375 -13.296875 L 14.203125 0 L 7.328125 0 L 10.484375 -13.75 C 10.722656 -14.726562 10.675781 -15.351562 10.34375 -15.625 C 10.019531 -15.894531 9.351562 -16.03125 8.34375 -16.03125 L 4.671875 0 L -2.453125 0 Z M 11.5 -22.125 C 12.476562 -22.125 13.210938 -23.191406 13.703125 -25.328125 C 13.921875 -26.253906 14.035156 -26.945312 14.046875 -27.40625 C 14.066406 -27.875 13.988281 -28.195312 13.8125 -28.375 C 13.632812 -28.550781 13.34375 -28.640625 12.9375 -28.640625 L 11.296875 -28.640625 L 9.828125 -22.125 Z M 11.5 -22.125 "/></g></g></g><g fill="#000000" fill-opacity="1"><g transform="translate(148.641398, 217.896701)"><g><path d="M 7.375 -4.40625 C 7.738281 -4.257812 8.019531 -4.039062 8.21875 -3.75 C 8.425781 -3.457031 8.53125 -3.097656 8.53125 -2.671875 C 8.53125 -1.796875 8.1875 -1.128906 7.5 -0.671875 C 6.820312 -0.222656 5.910156 0 4.765625 0 L 0.5 0 L 2.203125 -8.515625 L 6.125 -8.515625 C 7.007812 -8.515625 7.691406 -8.347656 8.171875 -8.015625 C 8.648438 -7.691406 8.890625 -7.21875 8.890625 -6.59375 C 8.890625 -6.070312 8.753906 -5.625 8.484375 -5.25 C 8.210938 -4.875 7.84375 -4.59375 7.375 -4.40625 Z M 3.53125 -7.265625 L 3.046875 -4.921875 L 5.296875 -4.921875 C 5.898438 -4.921875 6.375 -5.039062 6.71875 -5.28125 C 7.070312 -5.519531 7.25 -5.867188 7.25 -6.328125 C 7.25 -6.953125 6.757812 -7.265625 5.78125 -7.265625 Z M 4.875 -1.234375 C 5.539062 -1.234375 6.050781 -1.351562 6.40625 -1.59375 C 6.769531 -1.84375 6.953125 -2.203125 6.953125 -2.671875 C 6.953125 -3.035156 6.820312 -3.296875 6.5625 -3.453125 C 6.3125 -3.617188 5.929688 -3.703125 5.421875 -3.703125 L 2.8125 -3.703125 L 2.328125 -1.234375 Z M 4.875 -1.234375 "/></g></g></g><g fill="#000000" fill-opacity="1"><g transform="translate(162.754475, 217.896701)"><g><path d="M 4.734375 -2.90625 L 4.140625 0 L 2.578125 0 L 3.171875 -3.015625 L 0.953125 -8.515625 L 2.515625 -8.515625 L 4.1875 -4.359375 L 7.546875 -8.515625 L 9.203125 -8.515625 Z M 4.734375 -2.90625 "/></g></g></g><g fill="#000000" fill-opacity="1"><g transform="translate(175.652261, 217.896701)"><g/></g></g><g fill="#000000" fill-opacity="1"><g transform="translate(183.871146, 217.896701)"><g><path d="M 5.484375 -8.515625 C 6.515625 -8.515625 7.3125 -8.285156 7.875 -7.828125 C 8.4375 -7.378906 8.71875 -6.75 8.71875 -5.9375 C 8.71875 -5.21875 8.550781 -4.597656 8.21875 -4.078125 C 7.894531 -3.554688 7.425781 -3.15625 6.8125 -2.875 C 6.195312 -2.59375 5.476562 -2.453125 4.65625 -2.453125 L 2.578125 -2.453125 L 2.078125 0 L 0.5 0 L 2.203125 -8.515625 Z M 4.71875 -3.796875 C 5.488281 -3.796875 6.082031 -3.96875 6.5 -4.3125 C 6.914062 -4.65625 7.125 -5.148438 7.125 -5.796875 C 7.125 -6.253906 6.96875 -6.597656 6.65625 -6.828125 C 6.34375 -7.054688 5.894531 -7.171875 5.3125 -7.171875 L 3.515625 -7.171875 L 2.84375 -3.796875 Z M 4.71875 -3.796875 "/></g></g></g><g fill="#000000" fill-opacity="1"><g transform="translate(197.558871, 217.896701)"><g><path d="M 8.734375 -5.9375 C 8.734375 -5.125 8.515625 -4.4375 8.078125 -3.875 C 7.640625 -3.3125 7.03125 -2.921875 6.25 -2.703125 L 7.765625 0 L 6.09375 0 L 4.6875 -2.484375 L 2.578125 -2.484375 L 2.09375 0 L 0.5 0 L 2.203125 -8.515625 L 5.5 -8.515625 C 6.53125 -8.515625 7.328125 -8.285156 7.890625 -7.828125 C 8.453125 -7.378906 8.734375 -6.75 8.734375 -5.9375 Z M 4.734375 -3.796875 C 5.503906 -3.796875 6.097656 -3.96875 6.515625 -4.3125 C 6.929688 -4.65625 7.140625 -5.148438 7.140625 -5.796875 C 7.140625 -6.253906 6.984375 -6.597656 6.671875 -6.828125 C 6.367188 -7.054688 5.925781 -7.171875 5.34375 -7.171875 L 3.53125 -7.171875 L 2.84375 -3.796875 Z M 4.734375 -3.796875 "/></g></g></g><g fill="#000000" fill-opacity="1"><g transform="translate(211.307366, 217.896701)"><g><path d="M 3.5 -7.1875 L 3.0625 -4.96875 L 7.1875 -4.96875 L 6.921875 -3.671875 L 2.796875 -3.671875 L 2.328125 -1.328125 L 7.140625 -1.328125 L 6.875 0 L 0.5 0 L 2.203125 -8.515625 L 8.40625 -8.515625 L 8.140625 -7.1875 Z M 3.5 -7.1875 "/></g></g></g><g fill="#000000" fill-opacity="1"><g transform="translate(224.314522, 217.896701)"><g><path d="M 4.8125 0.125 C 3.957031 0.125 3.21875 -0.0234375 2.59375 -0.328125 C 1.976562 -0.640625 1.503906 -1.066406 1.171875 -1.609375 C 0.847656 -2.160156 0.6875 -2.796875 0.6875 -3.515625 C 0.6875 -4.472656 0.90625 -5.335938 1.34375 -6.109375 C 1.78125 -6.890625 2.394531 -7.503906 3.1875 -7.953125 C 3.976562 -8.398438 4.890625 -8.625 5.921875 -8.625 C 6.660156 -8.625 7.3125 -8.503906 7.875 -8.265625 C 8.4375 -8.023438 8.863281 -7.671875 9.15625 -7.203125 L 8.015625 -6.25 C 7.535156 -6.914062 6.800781 -7.25 5.8125 -7.25 C 5.101562 -7.25 4.484375 -7.082031 3.953125 -6.75 C 3.421875 -6.425781 3.003906 -5.988281 2.703125 -5.4375 C 2.410156 -4.882812 2.265625 -4.273438 2.265625 -3.609375 C 2.265625 -2.890625 2.492188 -2.316406 2.953125 -1.890625 C 3.421875 -1.472656 4.082031 -1.265625 4.9375 -1.265625 C 5.914062 -1.265625 6.722656 -1.59375 7.359375 -2.25 L 8.28125 -1.25 C 7.875 -0.789062 7.375 -0.445312 6.78125 -0.21875 C 6.1875 0.0078125 5.53125 0.125 4.8125 0.125 Z M 4.8125 0.125 "/></g></g></g><g fill="#000000" fill-opacity="1"><g transform="translate(238.014406, 217.896701)"><g><path d="M 2.203125 -8.515625 L 3.78125 -8.515625 L 2.078125 0 L 0.5 0 Z M 2.203125 -8.515625 "/></g></g></g><g fill="#000000" fill-opacity="1"><g transform="translate(246.75587, 217.896701)"><g><path d="M 3.28125 0.125 C 2.625 0.125 1.992188 0.03125 1.390625 -0.15625 C 0.796875 -0.34375 0.328125 -0.582031 -0.015625 -0.875 L 0.65625 -2.109375 C 1.007812 -1.828125 1.429688 -1.601562 1.921875 -1.4375 C 2.410156 -1.269531 2.910156 -1.1875 3.421875 -1.1875 C 4.046875 -1.1875 4.539062 -1.289062 4.90625 -1.5 C 5.28125 -1.71875 5.46875 -2.015625 5.46875 -2.390625 C 5.46875 -2.597656 5.390625 -2.773438 5.234375 -2.921875 C 5.085938 -3.066406 4.90625 -3.179688 4.6875 -3.265625 C 4.46875 -3.359375 4.15625 -3.460938 3.75 -3.578125 C 3.195312 -3.734375 2.75 -3.882812 2.40625 -4.03125 C 2.070312 -4.1875 1.78125 -4.414062 1.53125 -4.71875 C 1.289062 -5.019531 1.171875 -5.410156 1.171875 -5.890625 C 1.171875 -6.429688 1.328125 -6.910156 1.640625 -7.328125 C 1.953125 -7.742188 2.390625 -8.0625 2.953125 -8.28125 C 3.515625 -8.507812 4.160156 -8.625 4.890625 -8.625 C 5.441406 -8.625 5.960938 -8.5625 6.453125 -8.4375 C 6.953125 -8.3125 7.378906 -8.132812 7.734375 -7.90625 L 7.109375 -6.65625 C 6.796875 -6.875 6.441406 -7.035156 6.046875 -7.140625 C 5.648438 -7.253906 5.234375 -7.3125 4.796875 -7.3125 C 4.171875 -7.3125 3.671875 -7.195312 3.296875 -6.96875 C 2.929688 -6.738281 2.75 -6.429688 2.75 -6.046875 C 2.75 -5.828125 2.820312 -5.644531 2.96875 -5.5 C 3.125 -5.351562 3.3125 -5.238281 3.53125 -5.15625 C 3.75 -5.070312 4.070312 -4.96875 4.5 -4.84375 C 5.03125 -4.6875 5.46875 -4.535156 5.8125 -4.390625 C 6.15625 -4.242188 6.441406 -4.023438 6.671875 -3.734375 C 6.910156 -3.453125 7.03125 -3.085938 7.03125 -2.640625 C 7.03125 -2.078125 6.875 -1.585938 6.5625 -1.171875 C 6.257812 -0.765625 5.820312 -0.445312 5.25 -0.21875 C 4.675781 0.0078125 4.019531 0.125 3.28125 0.125 Z M 3.28125 0.125 "/></g></g></g><g fill="#000000" fill-opacity="1"><g transform="translate(259.264756, 217.896701)"><g><path d="M 2.203125 -8.515625 L 3.78125 -8.515625 L 2.078125 0 L 0.5 0 Z M 2.203125 -8.515625 "/></g></g></g><g fill="#000000" fill-opacity="1"><g transform="translate(268.006213, 217.896701)"><g><path d="M 4.75 0.125 C 3.90625 0.125 3.175781 -0.0234375 2.5625 -0.328125 C 1.957031 -0.640625 1.492188 -1.066406 1.171875 -1.609375 C 0.847656 -2.160156 0.6875 -2.796875 0.6875 -3.515625 C 0.6875 -4.472656 0.898438 -5.335938 1.328125 -6.109375 C 1.765625 -6.890625 2.378906 -7.503906 3.171875 -7.953125 C 3.960938 -8.398438 4.867188 -8.625 5.890625 -8.625 C 6.734375 -8.625 7.460938 -8.472656 8.078125 -8.171875 C 8.691406 -7.867188 9.160156 -7.441406 9.484375 -6.890625 C 9.804688 -6.347656 9.96875 -5.71875 9.96875 -5 C 9.96875 -4.039062 9.75 -3.171875 9.3125 -2.390625 C 8.882812 -1.617188 8.269531 -1.003906 7.46875 -0.546875 C 6.675781 -0.0976562 5.769531 0.125 4.75 0.125 Z M 4.890625 -1.265625 C 5.578125 -1.265625 6.1875 -1.425781 6.71875 -1.75 C 7.25 -2.082031 7.65625 -2.523438 7.9375 -3.078125 C 8.226562 -3.640625 8.375 -4.25 8.375 -4.90625 C 8.375 -5.613281 8.144531 -6.179688 7.6875 -6.609375 C 7.226562 -7.035156 6.582031 -7.25 5.75 -7.25 C 5.0625 -7.25 4.453125 -7.082031 3.921875 -6.75 C 3.390625 -6.425781 2.976562 -5.984375 2.6875 -5.421875 C 2.40625 -4.867188 2.265625 -4.265625 2.265625 -3.609375 C 2.265625 -2.898438 2.492188 -2.332031 2.953125 -1.90625 C 3.410156 -1.476562 4.054688 -1.265625 4.890625 -1.265625 Z M 4.890625 -1.265625 "/></g></g></g><g fill="#000000" fill-opacity="1"><g transform="translate(283.103679, 217.896701)"><g><path d="M 9.75 -8.515625 L 8.046875 0 L 6.75 0 L 3.265625 -5.953125 L 2.0625 0 L 0.5 0 L 2.203125 -8.515625 L 3.5 -8.515625 L 7 -2.546875 L 8.1875 -8.515625 Z M 9.75 -8.515625 "/></g></g></g><g fill="#38b6ff" fill-opacity="0.4"><g transform="translate(219.944522, 205.624191)"><g><path d="M -3.34375 0 L -1.875 -6.375 L 11.296875 -28.671875 L 4.046875 -28.671875 L 5.53125 -35.125 L 20.203125 -35.125 L 18.8125 -28.984375 L 5.359375 -6.453125 L 13.21875 -6.453125 L 11.734375 0 Z M -3.34375 0 "/></g></g></g><g fill="#38b6ff" fill-opacity="0.4"><g transform="translate(237.526091, 205.624191)"><g><path d="M 5.859375 0.328125 C 3.015625 0.328125 1.054688 -0.535156 -0.015625 -2.265625 C -1.085938 -3.992188 -1.257812 -6.425781 -0.53125 -9.5625 L 3.3125 -26.296875 C 4.019531 -29.316406 5.285156 -31.597656 7.109375 -33.140625 C 8.941406 -34.679688 11.273438 -35.453125 14.109375 -35.453125 C 16.941406 -35.453125 18.914062 -34.679688 20.03125 -33.140625 C 21.15625 -31.597656 21.363281 -29.316406 20.65625 -26.296875 L 16.8125 -9.5625 C 16.070312 -6.40625 14.769531 -3.96875 12.90625 -2.25 C 11.039062 -0.53125 8.691406 0.328125 5.859375 0.328125 Z M 7.328125 -6.140625 C 7.953125 -6.140625 8.441406 -6.410156 8.796875 -6.953125 C 9.148438 -7.492188 9.4375 -8.253906 9.65625 -9.234375 L 13.625 -26.421875 C 13.789062 -27.179688 13.832031 -27.796875 13.75 -28.265625 C 13.664062 -28.742188 13.3125 -28.984375 12.6875 -28.984375 C 11.507812 -28.984375 10.71875 -28.097656 10.3125 -26.328125 L 6.34375 -9.203125 C 6.09375 -8.191406 6.03125 -7.425781 6.15625 -6.90625 C 6.28125 -6.394531 6.671875 -6.140625 7.328125 -6.140625 Z M 7.328125 -6.140625 "/></g></g></g><g fill="#38b6ff" fill-opacity="0.4"><g transform="translate(258.215066, 205.624191)"><g><path d="M -2.453125 0 L 5.65625 -35.125 L 12.890625 -35.125 L 12.234375 -18.3125 L 16.109375 -35.125 L 22.90625 -35.125 L 14.8125 0 L 7.9375 0 L 8.46875 -17.578125 L 4.421875 0 Z M -2.453125 0 "/></g></g></g><g fill="#38b6ff" fill-opacity="0.4"><g transform="translate(279.394674, 205.624191)"><g><path d="M -2.453125 0 L 5.65625 -35.125 L 19.71875 -35.125 L 18.15625 -28.34375 L 11.25 -28.34375 L 9.65625 -21.515625 L 16.28125 -21.515625 L 14.765625 -14.890625 L 8.140625 -14.890625 L 6.265625 -6.828125 L 13.625 -6.828125 L 12.0625 0 Z M -2.453125 0 "/></g></g></g><g fill="#38b6ff" fill-opacity="1"><g transform="translate(219.944522, 205.624191)"><g><path d="M -3.34375 0 L -1.875 -6.375 L 11.296875 -28.671875 L 4.046875 -28.671875 L 5.53125 -35.125 L 20.203125 -35.125 L 18.8125 -28.984375 L 5.359375 -6.453125 L 13.21875 -6.453125 L 11.734375 0 Z M -3.34375 0 "/></g></g></g><g fill="#38b6ff" fill-opacity="1"><g transform="translate(237.526091, 205.624191)"><g><path d="M 5.859375 0.328125 C 3.015625 0.328125 1.054688 -0.535156 -0.015625 -2.265625 C -1.085938 -3.992188 -1.257812 -6.425781 -0.53125 -9.5625 L 3.3125 -26.296875 C 4.019531 -29.316406 5.285156 -31.597656 7.109375 -33.140625 C 8.941406 -34.679688 11.273438 -35.453125 14.109375 -35.453125 C 16.941406 -35.453125 18.914062 -34.679688 20.03125 -33.140625 C 21.15625 -31.597656 21.363281 -29.316406 20.65625 -26.296875 L 16.8125 -9.5625 C 16.070312 -6.40625 14.769531 -3.96875 12.90625 -2.25 C 11.039062 -0.53125 8.691406 0.328125 5.859375 0.328125 Z M 7.328125 -6.140625 C 7.953125 -6.140625 8.441406 -6.410156 8.796875 -6.953125 C 9.148438 -7.492188 9.4375 -8.253906 9.65625 -9.234375 L 13.625 -26.421875 C 13.789062 -27.179688 13.832031 -27.796875 13.75 -28.265625 C 13.664062 -28.742188 13.3125 -28.984375 12.6875 -28.984375 C 11.507812 -28.984375 10.71875 -28.097656 10.3125 -26.328125 L 6.34375 -9.203125 C 6.09375 -8.191406 6.03125 -7.425781 6.15625 -6.90625 C 6.28125 -6.394531 6.671875 -6.140625 7.328125 -6.140625 Z M 7.328125 -6.140625 "/></g></g></g><g fill="#38b6ff" fill-opacity="1"><g transform="translate(258.215066, 205.624191)"><g><path d="M -2.453125 0 L 5.65625 -35.125 L 12.890625 -35.125 L 12.234375 -18.3125 L 16.109375 -35.125 L 22.90625 -35.125 L 14.8125 0 L 7.9375 0 L 8.46875 -17.578125 L 4.421875 0 Z M -2.453125 0 "/></g></g></g><g fill="#38b6ff" fill-opacity="1"><g transform="translate(279.394674, 205.624191)"><g><path d="M -2.453125 0 L 5.65625 -35.125 L 19.71875 -35.125 L 18.15625 -28.34375 L 11.25 -28.34375 L 9.65625 -21.515625 L 16.28125 -21.515625 L 14.765625 -14.890625 L 8.140625 -14.890625 L 6.265625 -6.828125 L 13.625 -6.828125 L 12.0625 0 Z M -2.453125 0 "/></g></g></g><g clip-path="url(#fc42ddea02)"><path fill="#000000" d="M 98.953125 202.148438 C 99.164062 200.113281 100.214844 198.308594 101.75 197.105469 C 102.96875 198.167969 104.160156 200.414062 103.472656 201.386719 C 102.792969 202.351562 100.339844 202.46875 98.953125 202.148438 M 101.980469 208.875 C 100.394531 207.730469 99.28125 205.964844 98.992188 203.941406 C 100.519531 203.417969 103.066406 203.496094 103.566406 204.578125 C 104.0625 205.652344 102.945312 207.832031 101.980469 208.875 Z M 109.296875 209.628906 C 108.375 210.042969 107.304688 210.28125 106.28125 210.28125 C 105.261719 210.28125 104.390625 210.085938 103.539062 209.742188 C 103.847656 208.160156 105.183594 206 106.371094 206.109375 C 107.550781 206.214844 108.875 208.265625 109.296875 209.628906 Z M 113.613281 203.660156 C 113.402344 205.699219 112.351562 207.492188 110.820312 208.699219 C 109.601562 207.636719 108.40625 205.402344 109.09375 204.433594 C 109.777344 203.464844 112.226562 203.339844 113.613281 203.660156 Z M 110.585938 196.929688 C 112.175781 198.078125 113.289062 199.839844 113.574219 201.863281 C 112.050781 202.390625 109.5 202.316406 109 201.234375 C 108.507812 200.164062 109.621094 197.976562 110.585938 196.929688 Z M 106.28125 195.535156 C 107.304688 195.535156 108.179688 195.722656 109.027344 196.066406 C 108.722656 197.652344 107.382812 199.816406 106.199219 199.707031 C 105.015625 199.601562 103.695312 197.539062 103.273438 196.179688 C 104.191406 195.765625 105.261719 195.535156 106.28125 195.535156 Z M 106.28125 192.152344 C 112.203125 192.152344 117.039062 196.984375 117.039062 202.90625 C 117.039062 208.832031 112.203125 213.667969 106.28125 213.667969 C 100.359375 213.667969 95.527344 208.832031 95.527344 202.90625 C 95.527344 196.984375 100.359375 192.152344 106.28125 192.152344 Z M 146.414062 168.722656 C 145.570312 168.621094 145.25 168.519531 144.097656 168.671875 C 135.355469 169.839844 119.984375 177.832031 119.0625 179.667969 C 117.695312 182.390625 137.042969 181.128906 138.636719 180.984375 C 144.296875 180.457031 148.089844 170.265625 146.414062 168.722656 Z M 149.894531 164.925781 L 155.316406 172.414062 L 144.945312 198.738281 L 120.628906 202.238281 L 120.628906 202.832031 L 143.613281 202.210938 L 141.390625 208.265625 L 117.132812 208.265625 C 117.9375 206.648438 118.390625 204.839844 118.390625 202.921875 L 118.390625 202.878906 C 118.382812 199.5625 117.023438 196.542969 114.84375 194.359375 L 114.84375 194.351562 C 112.65625 192.164062 109.628906 190.796875 106.296875 190.792969 L 106.253906 190.792969 C 102.933594 190.804688 99.921875 192.160156 97.738281 194.34375 C 95.546875 196.535156 94.179688 199.566406 94.175781 202.894531 L 94.175781 202.9375 C 94.175781 204.847656 94.636719 206.660156 95.4375 208.265625 L 69.96875 208.265625 C 69.347656 205.746094 71.496094 203.714844 71.25 202.605469 C 71.074219 201.8125 68.417969 195.488281 68.703125 195.117188 C 74.523438 187.59375 98.851562 179.574219 114.140625 177.738281 C 117.472656 175.617188 126.257812 170.902344 136.171875 167.472656 C 140.476562 165.980469 146.160156 164.976562 149.894531 164.925781 Z M 72.515625 198.953125 L 73.996094 202.285156 L 89.625 202.285156 L 78.085938 200.859375 L 76.789062 198.746094 Z M 72.515625 198.953125 " fill-opacity="1" fill-rule="evenodd"/></g></svg>